<svg width="200" height="200" xmlns="http://www.w3.org/2000/svg" version="1.1">
 <metadata id="metadata38">image/svg+xml</metadata>
 <defs id="defs36">
  <linearGradient id="svg_3" x1="0" y1="0" x2="1" y2="0">
   <stop stop-color="#404040" offset="0%" id="svg_5"/>
   <stop stop-color="#404040" offset="100%" id="svg_4"/>
  </linearGradient>
 </defs>
 <g>
  <title>Layer 1</title>
  <g transform="matrix(1.18937 0 0 1.55761 6.6256 -79.2484)" stroke="null" id="svg_14">
   <svg y="12.93664" x="-23.50751" stroke="null" viewBox="0 0 380 280" version="1.1" id="svg_1" width="100%" height="100%">
    <path stroke="null" fill="url(#svg_3)" d="m0,0l380,0l0,280l-380,0l0,-280z" id="svg_2"/>
   </svg>
  </g>
  <svg x="88.45332" y="54.5" width="61" height="91" version="1.1" id="svg_7">
   <svg height="91" viewBox="0 0 61 91" width="61" version="1.1" id="svg_11">
    <path fill-rule="evenodd" fill="#1ef799" d="m9,14.42683l52,-14.42683l-13,91l-48,-14.42683l42,4.43903l9,-69.91464l-42,3.32927z" id="svg_12"/>
   </svg>
  </svg>
  <g id="container">
   <g fill="#25fa9e" font-family="IDJueJiangHei" font-size="36px" aria-label="卡" id="text17">
    <path fill="#25fa9e" d="m65.71336,77.4411l14.184,0l0,4.392l-14.184,0l0,4.464l15.804,0l0,4.392l-15.732,0l0,16.164l-5.94,0l0,-16.164l-10.188,0l0,-4.392l10.116,0l0,-11.88l5.94,0l0,3.024zm8.388,26.82l-5.616,-11.232l5.904,0l5.688,11.232l-5.976,0z" id="path41"/>
   </g>
   <g fill="#25fa9e" font-family="IDJueJiangHei" font-size="36px" aria-label="兔" id="text19">
    <path fill="#25fa9e" d="m86.52336,84.2451l-1.764,0l6.156,-9.792l6.444,0l-0.936,1.476l17.64,0l0,3.852l-2.268,2.592l4.248,0l0,13.536l-8.136,0l0,6.732l5.76,0l0.18,-0.756l-3.744,0l-1.368,-5.256l5.364,0l1.152,4.608l2.592,0l-1.08,5.4l-14.58,0l0,-10.584l-8.964,10.656l-7.056,0l9.144,-10.8l-8.784,0l0,-11.664zm17.676,2.088l0,5.76l6.336,0l0,-5.76l-6.336,0zm-12.096,5.76l6.336,0l0,-5.76l-6.336,0l0,5.76zm1.872,-12.276l-1.62,2.556l12.888,0l2.232,-2.556l-13.5,0z" id="path44"/>
   </g>
   <g fill="#4af7ac" font-family="'Arial Unicode MS'" font-size="16px" aria-label="k" id="text21">
    <path fill="#4af7ac" d="m83.54486,125.3876l-1.72656,0l-2.75782,-4.24219l-0.99218,0.94531l0,3.29688l-1.40625,0l0,-11.45313l1.40625,0l0,6.52344l3.32812,-3.35937l1.82813,0l-3.17188,3.07031l3.49219,5.21875z" id="path47"/>
   </g>
   <g fill="#4af7ac" font-family="'Arial Unicode MS'" font-size="16px" aria-label="a" id="text23">
    <path fill="#4af7ac" d="m93.86517,125.3876l-1.47656,0q-0.20313,-0.39063 -0.28906,-1.02344q-1.41407,1.21875 -3.05469,1.21875q-1.3125,0 -2.07031,-0.65625q-0.75782,-0.65625 -0.75782,-1.73437q0,-1.03125 0.72657,-1.69532q0.73437,-0.67187 2.53906,-0.89062l1.3125,-0.19531q0.73437,-0.11719 1.21094,-0.28907q0,-0.63281 -0.03906,-0.89062q-0.03906,-0.26563 -0.23438,-0.54688q-0.1875,-0.28125 -0.60937,-0.45312q-0.42188,-0.17188 -1.13281,-0.17188q-0.90625,0 -1.4375,0.33594q-0.52344,0.33594 -0.71875,1.25l-1.375,-0.17969q0.22656,-1.27343 1.16406,-1.91406q0.9375,-0.64062 2.57812,-0.64062q1.49219,0 2.1875,0.44531q0.70313,0.4375 0.85938,1.0625q0.16406,0.625 0.16406,1.60937l0,1.89063q0,1.72656 0.0625,2.32031q0.07031,0.58594 0.39063,1.14844l-0.00001,0zm-1.85937,-3.64844l0,-0.50781q-1.10157,0.36719 -2.69532,0.58594q-1.59375,0.21093 -1.59375,1.34375q0,0.57031 0.42969,0.94531q0.42969,0.36719 1.23438,0.36719q1.03906,0 1.82812,-0.61719q0.79688,-0.625 0.79688,-2.11719z" id="path50"/>
   </g>
   <g fill="#4af7ac" font-family="'Arial Unicode MS'" font-size="16px" id="text25"/>
   <g fill="#4af7ac" font-family="'Arial Unicode MS'" font-size="16px" aria-label="t" id="text27">
    <path fill="#4af7ac" d="m108.03705,125.37197q-0.625,0.125 -1.05469,0.125q-0.92188,0 -1.34375,-0.32031q-0.42188,-0.32812 -0.51563,-0.82812q-0.09375,-0.5 -0.09375,-1.39063l0,-4.77344l-1.02343,0l0,-1.08593l1.02343,0l0,-2.0625l1.40625,-0.85157l0,2.91407l1.40625,0l0,1.08593l-1.40625,0l0,4.85157q0,0.625 0.125,0.89062q0.13282,0.25781 0.65625,0.25781q0.30469,0 0.625,-0.0625l0.19532,1.25z" id="path54"/>
   </g>
   <g fill="#4af7ac" font-family="'Arial Unicode MS'" font-size="16px" aria-label="u" id="text29">
    <path fill="#4af7ac" d="m117.27142,125.3876l-1.25781,0l0,-1.21875l-0.03906,0q-0.95313,1.41406 -2.60157,1.41406q-0.86718,0 -1.60937,-0.39844q-0.73438,-0.40625 -0.98438,-1.10937q-0.24218,-0.71094 -0.24218,-1.83594l0,-5.14062l1.40625,0l0,4.59375q0,1.10156 0.10156,1.57812q0.10937,0.47656 0.55469,0.78906q0.44531,0.30469 1.0625,0.30469q0.79687,0 1.5,-0.54687q0.70312,-0.55469 0.70312,-2.28907l0,-4.42968l1.40625,0l0,8.28906z" id="path57"/>
   </g>
  </g>
 </g>
</svg>