<svg width="350" height="220" xmlns="http://www.w3.org/2000/svg" xml:space="preserve" version="1.1">

 <g>
  <title>Layer 1</title>
  <g opacity="0.8" stroke="null" id="svg_1">
   <g stroke="null" id="svg_2">
    <path stroke="null" id="svg_3" d="m200.17872,79.6l-50.35744,0c-3.71233,0 -6.72127,2.87987 -6.72127,6.40523l0,47.98954c0,3.53777 3.02197,6.40523 6.72127,6.40523l50.35744,0c3.71233,0 6.72127,-2.87987 6.72127,-6.40523l0,-47.98954c0,-3.52536 -3.02197,-6.40523 -6.72127,-6.40523zm3.52997,54.39476c0,1.84957 -1.58914,3.36398 -3.52997,3.36398l-50.35744,0c-1.94083,0 -3.52997,-1.51441 -3.52997,-3.36398l0,-47.98954c0,-1.84957 1.58914,-3.36398 3.52997,-3.36398l50.35744,0c1.94083,0 3.52997,1.51441 3.52997,3.36398l0,47.98954z"/>
    <path stroke="null" id="svg_4" d="m187.04879,108.48559l-10.45966,0l0,-9.96782c0,-0.8441 -0.71641,-1.52683 -1.60216,-1.52683s-1.60216,0.68273 -1.60216,1.52683l0,9.96782l-10.45966,0c-0.88575,0 -1.60216,0.68273 -1.60216,1.51441c0,0.8441 0.71641,1.52683 1.60216,1.52683l10.45966,0l0,9.96782c0,0.8441 0.71641,1.52683 1.60216,1.52683s1.60216,-0.68273 1.60216,-1.52683l0,-9.96782l10.45966,0c0.88575,0 1.60216,-0.68273 1.60216,-1.52683c0,-0.8441 -0.71641,-1.51441 -1.60216,-1.51441z"/>
   </g>
  </g>
  <g id="svg_5"/>
  <g id="svg_6"/>
  <g id="svg_7"/>
  <g id="svg_8"/>
  <g id="svg_9"/>
  <g id="svg_10"/>
  <g id="svg_11"/>
  <g id="svg_12"/>
  <g id="svg_13"/>
  <g id="svg_14"/>
  <g id="svg_15"/>
  <g id="svg_16"/>
  <g id="svg_17"/>
  <g id="svg_18"/>
  <g id="svg_19"/>
 </g>
</svg>