<svg xmlns="http://www.w3.org/2000/svg" width="70" height="44" fill="none" style=""><rect id="backgroundrect" width="100%" height="100%" x="0" y="0" fill="none" stroke="none" class="" style=""/>


<g class="currentLayer" style=""><title>Layer 1</title><path fill-rule="evenodd" clip-rule="evenodd" d="M39.70997784817966,12.414508819580078 H30.290011234282545 C27.006415453218718,12.414508819580078 24.94818600450737,14.630751257357597 24.94818600450737,17.76815947776556 V26.231803849196435 C24.94818600450737,29.369231240588427 26.996846126707094,31.585492849349976 30.290011234282545,31.585492849349976 H39.70997784817966 C43.00315300756868,31.585492849349976 45.0518131297684,29.369231240588427 45.0518131297684,26.231803849196435 V17.76815947776556 C45.0518131297684,14.630751257357597 43.00315300756868,12.414508819580078 39.70997784817966,12.414508819580078 z" stroke="#6d6d6d" stroke-width="0.5" stroke-linecap="round" stroke-linejoin="round" id="svg_2" class="" stroke-opacity="1" stroke-dasharray="none" filter="" fill="none"/><path opacity="0.4" fill-rule="evenodd" clip-rule="evenodd" d="M35.74997534027099,18.33682502593994 C35.74997534027099,17.92260502593994 35.414175340270994,17.58682502593994 34.99997534027099,17.58682502593994 C34.585775340271,17.58682502593994 34.24997534027099,17.92260502593994 34.24997534027099,18.33682502593994 V21.250075025939942 H31.333325340270996 C30.919115340270995,21.250075025939942 30.583325340270996,21.58587502593994 30.583325340270996,22.000075025939942 C30.583325340270996,22.414275025939943 30.919115340270995,22.750075025939942 31.333325340270996,22.750075025939942 H34.24997534027099 V25.663175025939942 C34.24997534027099,26.07737502593994 34.585775340271,26.413175025939942 34.99997534027099,26.413175025939942 C35.414175340270994,26.413175025939942 35.74997534027099,26.07737502593994 35.74997534027099,25.663175025939942 V22.750075025939942 H38.666675340271 C39.08087534027099,22.750075025939942 39.416675340271,22.414275025939943 39.416675340271,22.000075025939942 C39.416675340271,21.58587502593994 39.08087534027099,21.250075025939942 38.666675340271,21.250075025939942 H35.74997534027099 V18.33682502593994 z" fill="#130F26" id="svg_1" class=""/></g><defs><filter id="f009" xmlns:inkscape="http://www.inkscape.org/namespaces/inkscape" inkscape:label="Roughen" inkscape:menu="ABCs" inkscape:menu-tooltip="Small-scale roughening to edges and content" color-interpolation-filters="sRGB">
            <feTurbulence numOctaves="3" seed="0" type="turbulence" baseFrequency=".04" result="result91"/>
            <feDisplacementMap scale="6.6" yChannelSelector="G" xChannelSelector="R" in="SourceGraphic" in2="result91"/>
        </filter></defs></svg>