<svg width="459.334" height="459.334" xmlns="http://www.w3.org/2000/svg" xml:space="preserve" version="1.1">
 <g>
  <title>Layer 1</title>
  <g id="svg_1">
   <g id="svg_2">
    <g id="svg_3">
     <path id="svg_4" d="m175.216,404.514c-0.001,0.12 -0.009,0.239 -0.009,0.359c0,30.078 24.383,54.461 54.461,54.461s54.461,-24.383 54.461,-54.461c0,-0.12 -0.008,-0.239 -0.009,-0.359l-108.904,0z" fill="gray"/>
     <path id="svg_5" d="m403.549,336.438l-49.015,-72.002c0,-22.041 0,-75.898 0,-89.83c0,-60.581 -43.144,-111.079 -100.381,-122.459l0,-27.662c-0.001,-13.522 -10.963,-24.485 -24.486,-24.485s-24.485,10.963 -24.485,24.485l0,27.663c-57.237,11.381 -100.381,61.879 -100.381,122.459c0,23.716 0,76.084 0,89.83l-49.015,72.002c-5.163,7.584 -5.709,17.401 -1.419,25.511c4.29,8.11 12.712,13.182 21.887,13.182l306.826,0c9.175,0 17.597,-5.073 21.887,-13.182c4.291,-8.111 3.744,-17.928 -1.418,-25.512z" fill="gray"/>
    </g>
   </g>
  </g>
 </g>

</svg>