<svg width="59.465" height="59.465" xmlns="http://www.w3.org/2000/svg" version="1.1">
 <g>
  <title>Layer 1</title>
  <path id="svg_1" fill="lightcyan" d="m56.98566,19.82076l-25.34028,-18.71937c-0.68896,-0.44895 -1.15317,-0.76455 -1.84661,-0.76455c-0.69216,0 -1.17637,0.3156 -1.84534,0.76455l-25.34027,18.72128c-0.36958,0.36576 -0.6185,0.83694 -0.71756,1.34876c-0.07747,0.39879 -0.11454,0.80393 -0.11558,1.19636l-0.08,30.44895c-0.00914,3.47857 2.83088,6.31327 6.31074,6.31327l11.17192,0c1.75009,0 3.3263,0.14758 4.51758,-1.14403c1.0846,-1.17223 0.77448,-3.5792 0.78261,-5.17051l0.02373,-4.64128c-0.08295,-2.40653 2.66145,-2.80569 5.05598,-2.80569c2.39579,0 4.79055,0.39916 4.87351,2.80569l0.16,4.64128c0.0548,1.58912 -0.11571,4.17015 0.96635,5.34238c1.19128,1.29161 2.95377,0.97216 4.70259,0.97216l11.17192,0c3.47986,0 6.30412,-2.83089 6.31328,-6.31454l0.07999,-30.44578c0.0011,-0.39624 -0.11685,-1.19497 -0.11685,-1.19497c-0.10287,-0.5169 -0.35687,-0.98819 -0.72772,-1.35396l0.00001,0z"/>
 </g>

</svg>