<svg width="350" height="220" xmlns="http://www.w3.org/2000/svg" version="1.1" xml:space="preserve">
 <g>
  <title>Layer 1</title>
  <g stroke="null" id="svg_1">
   <path stroke="null" d="m256,73.90927l0,-2.00848c0,-5.45922 -5.79927,-9.90078 -12.92727,-9.90078l-136.14546,0c-7.128,0 -12.92727,4.44157 -12.92727,9.90078l0,76.19768c0,0.00075 0,0.00125 0,0.00201c0.00098,5.45871 5.79993,9.89953 12.92727,9.89953l136.14546,0c7.128,0 12.92727,-4.44157 12.92727,-9.90078l0,-74.18794c0,-0.00075 0,-0.00125 0,-0.00201zm-149.07273,-8.14947l136.14546,0c4.42113,0 8.01818,2.75467 8.01818,6.14099l0,1.22394c-11.49415,8.76357 -30.38727,23.17635 -46.05415,35.16382l-24.59847,-18.83956c-2.99847,-2.29648 -7.87778,-2.29648 -10.87625,0l-70.65295,54.11166l0,-71.65986c0,-3.38632 3.59705,-6.14099 8.01818,-6.14099zm136.14546,88.48041l-136.14546,0c-4.09713,0 -7.48407,-2.36591 -7.95895,-5.40758l74.06476,-56.72497c1.08458,-0.83066 2.84924,-0.83066 3.93415,0l24.59716,18.83856c-12.89749,9.87446 -22.86196,17.53917 -23.29167,17.97807c-0.81327,0.83041 -0.59367,2.00898 0.49091,2.63185c0.44149,0.25366 0.95825,0.37598 1.47076,0.37598c0.71575,0 1.42331,-0.23887 1.90538,-0.6928c1.88476,-1.62072 47.01142,-36.07594 68.95113,-52.80877l0,69.66867c0,3.38632 -3.59705,6.14099 -8.01818,6.14099z" id="svg_2"/>
   <path stroke="null" d="m127.87273,97.84335c7.128,0 12.92727,-4.44157 12.92727,-9.90078s-5.79927,-9.90078 -12.92727,-9.90078s-12.92727,4.44157 -12.92727,9.90078s5.79927,9.90078 12.92727,9.90078zm0,-16.04177c4.42113,0 8.01818,2.75467 8.01818,6.14099s-3.59705,6.14099 -8.01818,6.14099s-8.01818,-2.75467 -8.01818,-6.14099s3.59705,-6.14099 8.01818,-6.14099z" id="svg_3"/>
  </g>
  <g id="svg_4"/>
  <g id="svg_5"/>
  <g id="svg_6"/>
  <g id="svg_7"/>
  <g id="svg_8"/>
  <g id="svg_9"/>
  <g id="svg_10"/>
  <g id="svg_11"/>
  <g id="svg_12"/>
  <g id="svg_13"/>
  <g id="svg_14"/>
  <g id="svg_15"/>
  <g id="svg_16"/>
  <g id="svg_17"/>
  <g id="svg_18"/>
 </g>

</svg>