<svg width="350" height="220" xmlns="http://www.w3.org/2000/svg" fill="#000000">

 <g>
  <title>Layer 1</title>
  <path stroke="null" id="svg_1" d="m135.32143,77.5c-5.94616,0 -10.82143,3.66047 -10.82143,8.125l0,48.75c0,4.46452 4.87527,8.125 10.82143,8.125l79.35715,0c5.94616,0 10.82143,-3.66047 10.82143,-8.125l0,-48.75c0,-4.46452 -4.87527,-8.125 -10.82143,-8.125l-79.35715,0zm0,5.41667l79.35715,0c2.02902,0 3.60714,1.1849 3.60714,2.70833l0,36.79525l-25.25,-18.95833l-14.42857,10.83333l-21.64286,-16.25l-25.25,18.95833l0,-31.37859c0,-1.52344 1.57813,-2.70833 3.60714,-2.70833zm68.53572,5.41667c-3.97348,0 -7.21429,2.43327 -7.21429,5.41667c0,2.98339 3.2408,5.41667 7.21429,5.41667c3.97348,0 7.21429,-2.43327 7.21429,-5.41667c0,-2.98339 -3.2408,-5.41667 -7.21429,-5.41667zm-46.89286,17.37141l26.32089,19.76238l5.07251,-3.85092l-4.64982,-3.4912l9.32786,-7.00359l25.25,18.95833l0,4.29525c0,1.52344 -1.57813,2.70833 -3.60714,2.70833l-79.35715,0c-2.02902,0 -3.60714,-1.1849 -3.60714,-2.70833l0,-9.71192l25.25,-18.95833z"/>
 </g>
</svg>