<?xml version="1.0" encoding="utf-8"?>
<!-- Generator: Adobe Illustrator 19.1.0, SVG Export Plug-In . SVG Version: 6.00 Build 0)  -->
<svg version="1.1" id="Layer_1" xmlns="http://www.w3.org/2000/svg" xmlns:xlink="http://www.w3.org/1999/xlink" x="0px" y="0px"
	 viewBox="0 0 64 64" enable-background="new 0 0 64 64" xml:space="preserve">
<g id="Key">
	<path d="M62.999958,27.2011509H23.2275429v-3.6064014c0-6.3925991-5.2089996-11.5937996-11.6122999-11.5937996
		c-6.404285,0-11.6142845,5.2012005-11.6142845,11.5937996v16.8096008c0,6.3935013,5.21,11.5946999,11.6142845,11.5946999
		c6.4033003,0,11.6122999-5.2011986,11.6122999-11.5946999V36.798851h21.3690987v6.6014977
		c0,0.5517998,0.4473152,0.9990997,0.9990005,0.9990997h4.3516006c0.5517998,0,0.9990005-0.4473,0.9990005-0.9990997v-2.2586975
		h1.2647133v2.2586975c0,0.5517998,0.4471855,0.9990997,0.9990005,0.9990997h4.3515854
		c0.5517006,0,0.9990005-0.4473,0.9990005-0.9990997V36.798851h4.439415c0.5517845,0,0.9990845-0.4473,0.9990845-0.9990005
		v-7.5995998C63.9990425,27.6484509,63.5517426,27.2011509,62.999958,27.2011509z M62.0009575,34.8007507h-4.439415
		c-0.5517998,0-0.9990997,0.4473-0.9990997,0.9990997v6.6014977h-2.3534851v-2.2587967
		c0-0.5517006-0.447216-0.9990005-0.9990005-0.9990005h-3.2627144c-0.5517006,0-0.9990005,0.4473-0.9990005,0.9990005v2.2587967
		h-2.3535004v-6.6014977c0-0.5517998-0.4473-0.9990997-0.9990997-0.9990997H22.2285423
		c-0.5517998,0-0.9990997,0.4473-0.9990997,0.9990997v4.6044998c0,5.2919006-4.3124847,9.5965996-9.6141996,9.5965996
		c-5.3027997,0-9.6161995-4.3046989-9.6161995-9.5965996V23.5947495c0-5.2910004,4.3133998-9.5956993,9.6161995-9.5956993
		c5.3017149,0,9.6141996,4.3046989,9.6141996,9.5956993v4.6055012c0,0.5516987,0.4473,0.9989986,0.9990997,0.9989986h39.7724152
		V34.8007507z"/>
	<path d="M11.999958,20.0000496c-2.7614145,0-4.9999146,2.2385006-4.9999146,4.9999008v14.0000992
		c0,2.7614021,2.2385001,5,4.9999146,5c2.7614851,0,5-2.2385979,5-5V24.9999504
		C16.999958,22.2385502,14.7614431,20.0000496,11.999958,20.0000496z M14.9110432,39.0000496
		c0,1.6050987-1.3058996,2.9109993-2.9110851,2.9109993c-1.6051149,0-2.9110003-1.3059006-2.9110003-2.9109993V24.9999504
		c0-1.6051998,1.3058853-2.9110012,2.9110003-2.9110012c1.6051855,0,2.9110851,1.3058014,2.9110851,2.9110012V39.0000496z"/>
</g>
<g>
</g>
<g>
</g>
<g>
</g>
<g>
</g>
<g>
</g>
<g>
</g>
<g>
</g>
<g>
</g>
<g>
</g>
<g>
</g>
<g>
</g>
<g>
</g>
<g>
</g>
<g>
</g>
<g>
</g>
</svg>
