<svg width="600" height="500" xmlns="http://www.w3.org/2000/svg" version="1.1">
 <g id="Layer_1">
  <title>Layer 1</title>
  <g stroke="null" id="svg_1">
   <path stroke="null" fill="none" d="m-107.7757,-85.67203m33.98131,0l747.58879,0q33.98131,0 33.98131,27.97267l0,615.39871q0,27.97267 -33.98131,27.97267l-747.58879,0q-33.98131,0 -33.98131,-27.97267l0,-615.39871q0,-27.97267 33.98131,-27.97267z" id="svg_2"/>
   <path stroke="null" fill="#CCCDCF" d="m525.49997,124.29083a23.2772,19.16128 0 0 0 -16.27704,-6.15399l-177.11058,-5.73439l-13.42262,24.33623l18.45185,45.81923l-33.33566,52.11308l13.59252,41.959l33.6415,36.02879l48.72919,-37.09176a11.72355,9.65057 0 0 1 16.51491,0.55946l62.69552,55.83344a11.82549,9.73449 0 0 1 2.03888,10.57367a11.75753,9.67855 0 0 1 -11.0779,5.59453l-171.77551,-5.53859l-8.56329,20.25221l9.27689,18.29413l197.49937,6.29385a23.37914,19.2452 0 0 0 24.26265,-18.5179l11.00994,-230.80249a23.10729,19.02141 0 0 0 -6.15062,-13.8185l0,0.00001zm-126.92019,105.82061a35.10269,28.89577 0 1 1 2.75248,-57.70762a35.10269,28.89577 0 0 1 -2.75248,57.70762zm-127.32796,133.06598l5.94673,-21.25923l-139.49327,7.91626a11.68957,9.62259 0 0 1 -9.65069,-15.94442l103.37115,-97.70853a11.68957,9.62259 0 0 1 17.22853,-0.33568l34.59296,29.70697l-14.88381,-31.66507l26.23357,-54.6586l-24.19469,-43.74925l10.09245,-25.34324l-190.22737,10.79745a23.34516,19.21722 0 0 0 -21.68008,20.55991l19.30139,230.49479a23.10729,19.02141 0 0 0 7.91764,13.14716c4.68942,3.32874 10.80606,5.03508 16.99065,4.69941l169.83858,-9.65057l-11.38374,-17.00739l0.00001,0.00002z" id="svg_3"/>
  </g>
 </g>

</svg>