<svg width="352" height="221" xmlns="http://www.w3.org/2000/svg">

 <g>
  <title>Layer 1</title>
  <g stroke="null">
   <path stroke="null" d="m176,87c-6.63672,0 -12,5.36328 -12,12l0,5l-4,0c-1.64453,0 -3,1.35547 -3,3l0,24c0,1.64453 1.35547,3 3,3l32,0c1.64453,0 3,-1.35547 3,-3l0,-24c0,-1.64453 -1.35547,-3 -3,-3l-4,0l0,-5c0,-6.63672 -5.36328,-12 -12,-12zm0,2c5.56641,0 10,4.43359 10,10l0,5l-20,0l0,-5c0,-5.56641 4.43359,-10 10,-10zm-16,17l32,0c0.55469,0 1,0.44531 1,1l0,24c0,0.55469 -0.44531,1 -1,1l-32,0c-0.55469,0 -1,-0.44531 -1,-1l0,-24c0,-0.55469 0.44531,-1 1,-1zm16,8c-1.69922,0 -3,1.30078 -3,3c0,0.89844 0.39844,1.6875 1,2.1875l0,2.8125c0,1.10156 0.89844,2 2,2c1.10156,0 2,-0.89844 2,-2l0,-2.8125c0.60156,-0.5 1,-1.28906 1,-2.1875c0,-1.69922 -1.30078,-3 -3,-3z"/>
  </g>
 </g>
</svg>