<svg width="350" height="220" xmlns="http://www.w3.org/2000/svg">
 <g>
  <title>Layer 1</title>
  <g stroke="null" id="svg_1">
   <path stroke="null" d="m175,64c-13.27344,0 -24,10.49833 -24,23.48936l0,9.78723l-8,0c-3.28906,0 -6,2.65326 -6,5.87234l0,46.97872c0,3.21908 2.71094,5.87234 6,5.87234l64,0c3.28906,0 6,-2.65326 6,-5.87234l0,-46.97872c0,-3.21908 -2.71094,-5.87234 -6,-5.87234l-8,0l0,-9.78723c0,-12.99103 -10.72656,-23.48936 -24,-23.48936zm0,3.91489c11.13282,0 20,8.67852 20,19.57447l0,9.78723l-40,0l0,-9.78723c0,-10.89595 8.86718,-19.57447 20,-19.57447zm-32,33.27659l64,0c1.10938,0 2,0.87167 2,1.95745l0,46.97872c0,1.08578 -0.89062,1.95745 -2,1.95745l-64,0c-1.10938,0 -2,-0.87167 -2,-1.95745l0,-46.97872c0,-1.08578 0.89062,-1.95745 2,-1.95745zm32,15.65957c-3.39844,0 -6,2.54621 -6,5.87234c0,1.75865 0.79688,3.30319 2,4.28191l0,5.50532c0,2.15624 1.79688,3.91489 4,3.91489c2.20312,0 4,-1.75865 4,-3.91489l0,-5.50532c1.20312,-0.97872 2,-2.52327 2,-4.28191c0,-3.32613 -2.60156,-5.87234 -6,-5.87234z" id="svg_2"/>
  </g>
 </g>

</svg>