<svg width="512" height="512" xmlns="http://www.w3.org/2000/svg" version="1.1">
 <g>
  <title>Layer 1</title>
  <path stroke="null" fill="lightcyan" d="m511.92291,221.26148c-3.36208,-27.61813 -30.36917,-46.52375 -56.21875,-36.21519c-9.68067,3.89978 -21.331,-1.89323 -25.7,-12.29266c-5.22533,-12.40598 -11.62925,-24.28813 -19.08225,-35.32577c-6.63883,-9.82964 -5.37592,-22.69209 2.87017,-29.94432c9.85133,-8.62058 15.35575,-21.36864 15.09875,-34.93878c-0.257,-13.79784 -6.36075,-26.49994 -16.74817,-34.89281c-17.0905,-13.77432 -35.723,-25.24598 -55.40458,-34.0718c-5.31167,-2.37216 -10.87933,-3.58015 -16.55542,-3.58015c-20.51683,0 -37.82217,15.53072 -41.16317,36.92288c-1.75583,11.24288 -11.75775,18.88317 -23.02258,17.58324c-12.50767,-1.41431 -25.52833,-1.41431 -38.01492,0c-11.22267,1.29993 -21.26675,-6.34036 -23.02258,-17.58324c-3.341,-21.39216 -20.64533,-36.92288 -41.16317,-36.92288c-5.67508,0 -11.24375,1.20906 -16.53333,3.58015c-19.70367,8.82583 -38.33617,20.27396 -55.42667,34.0718c-10.36533,8.39288 -16.46908,21.09497 -16.72608,34.87036c-0.257,13.59259 5.24742,26.3182 15.09875,34.98368c8.26717,7.22978 9.48792,20.09223 2.87017,29.89835c-7.453,11.03763 -13.878,22.91979 -19.10333,35.32577c-4.369,10.39943 -15.163,16.51101 -25.93592,12.20073c-4.71133,-1.86972 -9.61642,-2.82756 -14.58475,-2.82756c-20.90233,0 -38.6785,16.83065 -41.39808,39.15713c-1.35025,11.31237 -2.057,22.87489 -2.057,34.30058c0,11.42569 0.70675,22.98821 2.07708,34.29951c3.341,27.59461 30.326,46.5013 56.21875,36.21519c9.65858,-3.89978 21.331,1.89323 25.7,12.29266c5.22533,12.40598 11.62925,24.28813 19.08225,35.32577c6.63883,9.82964 5.37592,22.69209 -2.87017,29.94432c-9.85133,8.62058 -15.35575,21.36864 -15.09875,34.93878c0.257,13.79784 6.36075,26.49994 16.74817,34.89281c17.0905,13.77432 35.723,25.24598 55.40458,34.0718c5.31167,2.37216 10.87933,3.58015 16.55542,3.58015c20.51683,0 37.82217,-15.53072 41.16317,-36.92288c1.75583,-11.24288 11.77883,-18.76878 23.02258,-17.58324c12.48558,1.41431 25.50725,1.41431 38.01492,0c11.26483,-1.20906 21.26675,6.34036 23.02258,17.58324c3.341,21.39216 20.64533,36.89936 41.16317,36.92288c5.67508,0 11.24375,-1.20906 16.53333,-3.58015c19.68158,-8.82583 38.33617,-20.27396 55.40458,-34.0718c10.36533,-8.39288 16.49117,-21.09497 16.74817,-34.87036c0.257,-13.59259 -5.24742,-26.3182 -15.09875,-34.98368c-8.26717,-7.22978 -9.48792,-20.09223 -2.87017,-29.89835c7.453,-11.03763 13.878,-22.91979 19.10333,-35.32577c4.369,-10.42188 15.18408,-16.51101 25.93592,-12.20073c4.71133,1.89323 9.61642,2.85108 14.58475,2.85108c20.90233,0 38.6785,-16.83065 41.39808,-39.15713c1.35025,-11.45027 2.057,-22.96683 2.057,-34.32409c0,-11.35727 -0.70675,-22.87382 -2.07708,-34.29951zm-254.92292,125.52219c-47.24483,0 -85.66633,-40.91353 -85.66633,-91.22268s38.4215,-91.22268 85.66633,-91.22268s85.66633,40.91353 85.66633,91.22268s-38.4215,91.22268 -85.66633,91.22268z" id="svg_1"/>
 </g>

</svg>