<svg width="512" height="512" xmlns="http://www.w3.org/2000/svg" fill="none">
 <g>
  <title>Layer 1</title>
  <path stroke="null" d="m256.00001,248.56666c65.195,0 118.00001,-52.6107 118.00001,-117.5672c0,-64.9552 -52.805,-117.56614 -118.00001,-117.56614c-65.195,0 -118.00001,52.61094 -118.00001,117.56614c0,64.9565 52.805,117.5672 118.00001,117.5672z" fill="lightcyan" id="svg_1"/>
  <path stroke="null" d="m160.6524,311.65748c6.73194,-1.92776 13.63658,2.01509 16.69326,9.31124l54.4111,46.79476c24.24325,-0.00625 24.24325,0.00157 48.48385,-0.00468l54.41377,-46.79008c3.05668,-7.29613 9.96134,-11.23897 16.69326,-9.31124c72.35489,20.71241 145.65234,62.94672 145.65234,126.48143l0,70.70607l-481.99995,0l0,-70.70607c0,-63.53471 73.29746,-105.76901 145.65234,-126.48143l0.00002,0z" fill="lightcyan" id="svg_2"/>
 </g>

</svg>