<svg width="32" height="32" xmlns="http://www.w3.org/2000/svg" fill="currentColor">

 <g>
  <title>Layer 1</title>
  <path id="svg_1" d="m24,15.992c0,-4.412 -3.584,-7.992 -8,-7.992s-8,3.58 -8,7.992c0,2.43 1.104,4.62 2.832,6.09c0.016,0.016 0.032,0.016 0.032,0.032c0.144,0.112 0.288,0.224 0.448,0.336c0.08,0.048 0.144,0.111 0.224,0.175a7.98,7.98 0 0 0 4.48,1.375a7.98,7.98 0 0 0 4.48,-1.375c0.08,-0.048 0.144,-0.111 0.224,-0.16c0.144,-0.111 0.304,-0.223 0.448,-0.335c0.016,-0.016 0.032,-0.016 0.032,-0.032c1.696,-1.487 2.8,-3.676 2.8,-6.106zm-8,7.001c-1.504,0 -2.88,-0.48 -4.016,-1.279c0.016,-0.128 0.048,-0.255 0.08,-0.383a4.17,4.17 0 0 1 0.416,-0.991c0.176,-0.304 0.384,-0.576 0.64,-0.816c0.24,-0.24 0.528,-0.463 0.816,-0.639c0.304,-0.176 0.624,-0.304 0.976,-0.4a4.15,4.15 0 0 1 1.088,-0.143a4.185,4.185 0 0 1 2.928,1.166c0.368,0.368 0.656,0.8 0.864,1.295c0.112,0.288 0.192,0.592 0.24,0.911a7.03,7.03 0 0 1 -4.032,1.279zm-2.448,-7.4a2.49,2.49 0 0 1 -0.208,-1.024c0,-0.351 0.064,-0.703 0.208,-1.023c0.144,-0.32 0.336,-0.607 0.576,-0.847c0.24,-0.24 0.528,-0.431 0.848,-0.575c0.32,-0.144 0.672,-0.208 1.024,-0.208c0.368,0 0.704,0.064 1.024,0.208c0.32,0.144 0.608,0.336 0.848,0.575c0.24,0.24 0.432,0.528 0.576,0.847c0.144,0.32 0.208,0.672 0.208,1.023c0,0.368 -0.064,0.704 -0.208,1.023a2.84,2.84 0 0 1 -0.576,0.848a2.84,2.84 0 0 1 -0.848,0.575a2.715,2.715 0 0 1 -2.064,0a2.84,2.84 0 0 1 -0.848,-0.575a2.526,2.526 0 0 1 -0.56,-0.848l0,0.001zm7.424,5.306c0,-0.032 -0.016,-0.048 -0.016,-0.08a5.22,5.22 0 0 0 -0.688,-1.406a4.883,4.883 0 0 0 -1.088,-1.135a5.207,5.207 0 0 0 -1.04,-0.608a2.82,2.82 0 0 0 0.464,-0.383a4.2,4.2 0 0 0 0.624,-0.784a3.624,3.624 0 0 0 0.528,-1.934a3.71,3.71 0 0 0 -0.288,-1.47a3.799,3.799 0 0 0 -0.816,-1.199a3.845,3.845 0 0 0 -1.2,-0.8a3.72,3.72 0 0 0 -1.472,-0.287a3.72,3.72 0 0 0 -1.472,0.288a3.631,3.631 0 0 0 -1.2,0.815a3.84,3.84 0 0 0 -0.8,1.199a3.71,3.71 0 0 0 -0.288,1.47c0,0.352 0.048,0.688 0.144,1.007c0.096,0.336 0.224,0.64 0.4,0.927c0.16,0.288 0.384,0.544 0.624,0.784c0.144,0.144 0.304,0.271 0.48,0.383a5.12,5.12 0 0 0 -1.04,0.624c-0.416,0.32 -0.784,0.703 -1.088,1.119a4.999,4.999 0 0 0 -0.688,1.406c-0.016,0.032 -0.016,0.064 -0.016,0.08c-1.264,-1.279 -2.048,-3.005 -2.048,-4.923c0,-3.852 3.152,-7.001 7.008,-7.001s7.008,3.149 7.008,7.001a6.96,6.96 0 0 1 -2.032,4.907z"/>
 </g>
</svg>